# xmcd
#
# Track frame offsets:
#	150
#	12849
#	27694
#	41506
#	57782
#	71219
#	89386
#	108435
#	126772
#	140714
#	156801
#
# Disc length: 2287 seconds
#
# Revision: 0
# Processed by: cddbd v1.5.1PL2 Copyright (c) Steve Scherf et al.
# Submitted via: dBpowerAMP V4.0
#
DISCID=9908ed0b
DTITLE=Clifton Jansky - From The Heart
DYEAR=2004
DGENRE=Country
TTITLE0=Heart Transplant
TTITLE1=Gotta Come from the Heart
TTITLE2=From Amarillo by Morning to Amazing Grace
TTITLE3=Forever in His Hand
TTITLE4=It's Not Just Talkin' The Talk
TTITLE5=Get Off The Fence
TTITLE6=If You Can Hear Me Now
TTITLE7=God's Way
TTITLE8=The Shape I'm In
TTITLE9=Like Coffee Needs A Cup
TTITLE10=Just Enough Faith
EXTD=
EXTT0=
EXTT1=
EXTT2=
EXTT3=
EXTT4=
EXTT5=
EXTT6=
EXTT7=
EXTT8=
EXTT9=
EXTT10=
PLAYORDER=
